<?xml version="1.0" encoding="utf-8"?>
<!-- Uploaded to: SVG Repo, www.svgrepo.com, Generator: SVG Repo Mixer Tools -->
<svg fill="#000000" height="800px" width="800px" version="1.1" id="Layer_1" xmlns="http://www.w3.org/2000/svg" xmlns:xlink="http://www.w3.org/1999/xlink" 
	 viewBox="0 0 64 64" enable-background="new 0 0 64 64" xml:space="preserve">
<g id="Pizza-piece_2_">
	<path fill-rule="evenodd" clip-rule="evenodd" d="M59.1116791,57.1221008L33.6711807,0.582
		c-0.1595993-0.3544-0.5097008-0.5849-0.8983994-0.5898c-0.0049019,0-0.0093002,0-0.0136986,0
		c-0.3833008,0-0.7334023,0.2197-0.9004021,0.5654L4.8996811,56.3905983c-0.1152,0.2383003-0.1313,0.5137024-0.0439,0.7637024
		c0.0874,0.2509995,0.2705002,0.4561005,0.5098,0.5713005c8.6679001,4.1854973,18.0233994,6.282196,27.3885994,6.282196
		c8.7997971,0,17.6078987-1.8524971,25.8554955-5.5634956C59.1135788,58.2178001,59.3381767,57.6259995,59.1116791,57.1221008z
		 M32.7273827,3.3584001l20.8815956,46.4091034c-13.7953987,6.0817986-29.4247971,5.9165993-43.0810966-0.4333L32.7273827,3.3584001
		z M7.1389813,56.3526001l2.5195003-5.2181015c7.2649002,3.3826027,15.0641003,5.0931015,22.8764992,5.0931015
		c7.4469986,0,14.8986969-1.5494003,21.8948975-4.6357994l2.4440002,5.4316978
		C40.9158783,63.8945007,22.9050808,63.652401,7.1389813,56.3526001z"/>
	<path fill-rule="evenodd" clip-rule="evenodd" d="M19.8391819,45.3311005
		c0.5473995,1.2168007,1.5366001,2.1483994,2.7860985,2.6219978c0.5771999,0.2198029,1.1783009,0.3291016,1.777401,0.3291016
		c0.6972008,0,1.3925991-0.1483994,2.0468006-0.4422989h0.0004997c2.5131989-1.1319008,3.6387005-4.097702,2.5077991-6.6114006
		c-1.1317997-2.5126991-4.0970993-3.6366997-6.6103001-2.5078011
		C19.8342819,39.8526001,18.7087803,42.8184013,19.8391819,45.3311005z M23.1682816,40.544899
		c0.3978996-0.1786995,0.8144989-0.2635994,1.2250996-0.2635994c1.1450005,0,2.2406998,0.6590996,2.7406998,1.7685013
		c0.6781998,1.5077972,0.0029011,3.2870979-1.5049,3.9657974c-0.7299004,0.3282013-1.5443993,0.3516006-2.2943993,0.0684013
		c-0.75-0.2851982-1.3432999-0.8437996-1.6714001-1.5732002C20.9851818,43.0028992,21.6604805,41.2235985,23.1682816,40.544899z"/>
	<path fill-rule="evenodd" clip-rule="evenodd" d="M38.1150818,37.7528992
		c0.4033012,0.1534004,0.8232002,0.2294998,1.2421951,0.2294998c0.4892006,0,0.9765015-0.1044998,1.4355011-0.3115005
		c0.8516006-0.3827972,1.5033989-1.0751991,1.8349991-1.9482002c0.331501-0.8740997,0.3031998-1.8251991-0.0805969-2.6767998
		c-0.7919998-1.7587986-2.8690987-2.5477982-4.6264992-1.7557983C37.0681801,31.6728992,36.4162827,32.3652,36.0842819,33.2402
		c-0.331501,0.8740997-0.3031998,1.8242989,0.080101,2.6777992C36.5481796,36.7695007,37.2410812,37.4208984,38.1150818,37.7528992z
		 M37.95438,33.9491997c0.1421013-0.3740005,0.421402-0.6708984,0.7857018-0.8348999
		c0.1991997-0.089901,0.4076996-0.1319008,0.6132965-0.1319008c0.5722008,0,1.1206017,0.3291016,1.3701019,0.8838005
		c0.1639977,0.3652992,0.1761971,0.7724991,0.0341988,1.1464996c-0.1421013,0.375-0.4208984,0.6709023-0.7857018,0.8349991
		l-0.0014992,0.0009003c-0.3647003,0.1631012-0.7709961,0.1749001-1.1463966,0.0342026
		c-0.3745995-0.142601-0.6719017-0.4218025-0.8359985-0.7861023C37.8240814,34.7314987,37.811882,34.3241997,37.95438,33.9491997z"
		/>
	<circle fill-rule="evenodd" clip-rule="evenodd" cx="30.8231812" cy="23.2542" r="2.4993124"/>
</g>
</svg>